HIERARCHY
ROOT root     
{
	OFFSET 0.0000 0.0000 0.0000
	CHANNELS 6 Xposition Yposition Zposition Zrotation Yrotation Xrotation
	JOINT pelvis   
	{
		OFFSET 0.0000 0.0000 0.0000
		CHANNELS 3 Zrotation Yrotation Xrotation
		JOINT thorax   
		{
			OFFSET 0.0000 23.0750 -5.0000
			CHANNELS 3 Zrotation Yrotation Xrotation
			JOINT rclavicle
			{
				OFFSET 0.0000 28.0009 0.0000
				CHANNELS 3 Zrotation Yrotation Xrotation
				JOINT rhumerus 
				{
					OFFSET -18.5725 5.5939 0.0000
					CHANNELS 3 Zrotation Yrotation Xrotation
					JOINT rradius  
					{
						OFFSET -24.8459 0.0000 0.0000
						CHANNELS 3 Zrotation Yrotation Xrotation
						JOINT rhand    
						{
							OFFSET -24.5477 0.0000 0.0000
							CHANNELS 3 Zrotation Yrotation Xrotation
							End Site
							{
								OFFSET -8.1826 0.0000 0.0000
							}
						}
					}
				}
			}
			JOINT lclavicle
			{
				OFFSET 0.0000 28.0009 0.0000
				CHANNELS 3 Zrotation Yrotation Xrotation
				JOINT lhumerus 
				{
					OFFSET 18.5725 5.5939 0.0000
					CHANNELS 3 Zrotation Yrotation Xrotation
					JOINT lradius  
					{
						OFFSET 24.8459 0.0000 0.0000
						CHANNELS 3 Zrotation Yrotation Xrotation
						JOINT lhand    
						{
							OFFSET 24.5477 0.0000 0.0000
							CHANNELS 3 Zrotation Yrotation Xrotation
							End Site
							{
								OFFSET 8.1826 0.0000 0.0000
							}
						}
					}
				}
			}
			JOINT head     
			{
				OFFSET 0.0000 35.2030 0.0000
				CHANNELS 3 Zrotation Yrotation Xrotation
				End Site
				{
					OFFSET 0.0000 11.7343 0.0000
				}
			}
		}
		JOINT rfemur   
		{
			OFFSET -8.2817 0.0000 0.0000
			CHANNELS 3 Zrotation Yrotation Xrotation
			JOINT rtibia   
			{
				OFFSET 0.0000 -43.3627 0.0000
				CHANNELS 3 Zrotation Yrotation Xrotation
				JOINT rfoot    
				{
					OFFSET 0.0000 -38.2947 0.0000
					CHANNELS 3 Zrotation Yrotation Xrotation
					JOINT rtoes    
					{
						OFFSET 0.0000 0.0000 16.6054
						CHANNELS 3 Zrotation Yrotation Xrotation
						End Site
						{
							OFFSET 0.0000 0.0000 5.5351
						}
					}
				}
			}
		}
		JOINT lfemur   
		{
			OFFSET 8.2817 0.0000 0.0000
			CHANNELS 3 Zrotation Yrotation Xrotation
			JOINT ltibia   
			{
				OFFSET 0.0000 -43.3627 0.0000
				CHANNELS 3 Zrotation Yrotation Xrotation
				JOINT lfoot    
				{
					OFFSET 0.0000 -38.2947 0.0000
					CHANNELS 3 Zrotation Yrotation Xrotation
					JOINT ltoes    
					{
						OFFSET 0.0000 0.0000 16.6054
						CHANNELS 3 Zrotation Yrotation Xrotation
						End Site
						{
							OFFSET 0.0000 0.0000 5.5351
						}
					}
				}
			}
		}
	}
}
MOTION
Frames: 7
Frame Time: .0333333
0.8818 89.284 4.6391 12.738 43.8259 30.1711 0 -0 0 -3.76975 -4.74259 -11.0988 24.9452 -9.38167 -8.73291e-06 40.0405 17.1758 42.9758 -1.91353e-06 81.6162 -2.2162e-06 9.35901 1.19568 0.0978999 -25.3824 16.2987 0.00012828 -45.7934 18.2697 10.4159 -1.99959e-06 -80.6316 1.69673e-06 2.22405 2.60955 0.0507004 0.565127 -16.0856 5.36522 1.15946 10.021 -13.0322 -0 -0 15.2977 -6.42268e-07 0.625501 8.74256 -179.905 4.34394e-08 -7.97341 0.689801 -1.80687 -30.4358 -0 -0 26.1785 6.78105e-06 11.4983 10.0829 2.03958 -2.85127e-06 -29.5273 
1.4288 89.279 5.0896 12.2217 42.4667 29.9976 0 -0 0 -3.7663 -4.16122 -11.3392 24.7049 -9.25379 3.62722e-05 39.7638 17.6002 43.5169 -1.48571e-06 82.3188 -1.69962e-06 9.53766 1.22899 0.1025 -25.25 16.4106 -2.12733e-05 -46.0292 18.552 10.3595 1.21072e-06 -80.7105 -1.42486e-06 2.15671 2.55138 0.0479994 0.288704 -15.839 5.14331 0.931997 10.4793 -13.0145 -0 -0 15.5809 4.44008e-07 1.20091 8.77735 -179.817 3.10199e-07 -8.6376 0.609723 -1.76655 -31.0736 -0 -0 24.35 3.64044e-06 10.7013 9.94856 1.86989 -1.21344e-05 -29.6996 
1.9793 89.262 5.5419 11.755 41.1237 29.8919 0 -0 0 -3.79216 -3.58532 -11.6078 24.4988 -9.14468 6.50227e-05 39.5332 17.925 43.9133 -1.6389e-06 82.9915 -1.85274e-06 9.66034 1.32788 0.112199 -25.1207 16.5311 6.79322e-05 -46.2524 18.7887 10.3032 0 -80.7842 0 2.14049 2.4856 0.0463997 0.0446128 -15.6065 4.91034 0.677335 10.8993 -13.0524 -0 -0 15.9347 -6.5318e-06 1.78648 8.73394 -179.729 1.96295e-08 -9.41103 0.436104 -1.58719 -31.7765 -0 -0 22.6378 3.63367e-07 9.76505 9.75598 1.67034 -9.37634e-06 -30.105 
2.5346 89.232 5.9994 11.3314 39.8067 29.837 0 -0 0 -3.83981 -3.02533 -11.8947 24.3507 -9.09239 1.75364e-05 39.3181 18.2241 44.2033 -0 83.6259 -0 9.71402 1.47571 0.125399 -25.0129 16.6354 -5.21569e-05 -46.447 19.0158 10.2271 -2.05e-06 -80.8821 1.74719e-06 2.18786 2.40663 0.0459993 -0.173389 -15.3832 4.67282 0.404675 11.2728 -13.1345 -0 -0 16.3551 -6.67496e-06 2.38136 8.61714 -179.643 2.20898e-07 -10.3808 0.171494 -1.28478 -32.5294 -0 -0 21.0364 -2.93811e-06 8.6758 9.52154 1.4459 -2.05577e-07 -30.9895 
3.0986 89.187 6.4657 10.9582 38.5256 29.8191 0 -0 0 -3.9177 -2.49108 -12.1865 24.2276 -9.03922 -6.37443e-05 39.1795 18.3848 44.3337 -4.54282e-07 84.2149 -1.05397e-06 9.74501 1.6368 0.139498 -24.904 16.7517 -7.4713e-05 -46.6266 19.1818 10.1638 1.24645e-06 -80.9549 -1.46056e-06 2.30637 2.31638 0.0465993 -0.366507 -15.1689 4.44244 0.115718 11.5875 -13.2336 -0 -0 16.8332 6.62732e-06 2.98872 8.43532 -179.561 -1.61964e-07 -11.4516 -0.177603 -0.904299 -33.3029 -0 -0 19.5325 -2.69967e-06 7.44365 9.24471 1.20244 3.59795e-06 -32.1405 
3.6732 89.124 6.9475 10.624 37.2883 29.8111 0 -0 0 -4.01217 -1.98842 -12.4669 24.139 -9.0114 -3.84367e-05 39.0992 18.4609 44.331 -2.2317e-06 84.7685 -2.44536e-06 9.75399 1.79619 0.153298 -24.8041 16.8624 -4.3226e-06 -46.7851 19.3092 10.1035 1.256e-06 -81.0175 -1.47011e-06 2.49142 2.21479 0.0481998 -0.54522 -14.9596 4.22801 -0.17056 11.8382 -13.3205 -0 -0 17.356 -2.8874e-06 3.60032 8.20357 -179.486 3.42835e-07 -12.5741 -0.581297 -0.486901 -34.0589 -0 -0 18.1053 5.39897e-06 6.08705 8.96358 0.951915 3.85795e-06 -33.6565 
4.26 89.038 7.4523 10.3155 36.1032 29.7834 0 -0 0 -4.10691 -1.51821 -12.7192 24.0719 -8.99722 4.84179e-05 39.0927 18.4341 44.1854 -2.48346e-06 85.2746 -2.69709e-06 9.76455 1.93617 0.165399 -24.7114 16.9685 -0.000139868 -46.9266 19.3942 10.0502 -2.08814e-06 -81.0594 1.78536e-06 2.73268 2.10285 0.0502006 -0.720295 -14.7547 4.03944 -0.432209 12.0216 -13.3643 -0 -0 17.9172 -2.37348e-06 4.20863 7.92674 -179.419 -3.61559e-07 -13.767 -1.00141 -0.0713035 -34.7614 -0 -0 16.7372 -2.84543e-06 4.63428 8.7078 0.703098 -7.78569e-06 -35.4352 
